<?xml version="1.0" encoding="UTF-8" standalone="no"?>
<!-- Created with Inkscape (http://www.inkscape.org/) -->
<svg xmlns:dc="http://purl.org/dc/elements/1.1/" xmlns:cc="http://creativecommons.org/ns#" xmlns:rdf="http://www.w3.org/1999/02/22-rdf-syntax-ns#" xmlns:svg="http://www.w3.org/2000/svg" xmlns="http://www.w3.org/2000/svg" xmlns:xlink="http://www.w3.org/1999/xlink" xmlns:sodipodi="http://sodipodi.sourceforge.net/DTD/sodipodi-0.dtd" xmlns:inkscape="http://www.inkscape.org/namespaces/inkscape" width="480" height="260" id="svg5272" version="1.1" inkscape:version="0.47+devel r9492" sodipodi:docname="Novo documento 5">
  <defs id="defs5274">
    <linearGradient id="linearGradient5891">
      <stop style="stop-color:#ffb200;stop-opacity:1;" offset="0" id="stop5893"/>
      <stop style="stop-color:#ff5200;stop-opacity:1;" offset="1" id="stop5895"/>
    </linearGradient>
    <linearGradient id="linearGradient5883">
      <stop style="stop-color:#00aad4;stop-opacity:1;" offset="0" id="stop5885"/>
      <stop style="stop-color:#0085a6;stop-opacity:0.9910714;" offset="1" id="stop5887"/>
    </linearGradient>
    <linearGradient id="linearGradient5865">
      <stop style="stop-color:#009bc2;stop-opacity:1;" offset="0" id="stop5867"/>
      <stop style="stop-color:#00ccff;stop-opacity:1;" offset="1" id="stop5869"/>
    </linearGradient>
    <linearGradient inkscape:collect="always" xlink:href="#linearGradient5891" id="linearGradient5897" x1="-112.14286" y1="591.35522" x2="43.95797" y2="591.35522" gradientUnits="userSpaceOnUse"/>
    <linearGradient inkscape:collect="always" xlink:href="#linearGradient5891" id="linearGradient5933" gradientUnits="userSpaceOnUse" x1="-112.14286" y1="591.35522" x2="43.95797" y2="591.35522"/>
    <filter inkscape:collect="always" id="filter6021" x="-0.068183586" width="1.1363672" y="-0.34454471" height="1.6890894" color-interpolation-filters="sRGB">
      <feGaussianBlur inkscape:collect="always" stdDeviation="13.631673" id="feGaussianBlur6023"/>
    </filter>
    <linearGradient inkscape:collect="always" xlink:href="#linearGradient5891" id="linearGradient6067" gradientUnits="userSpaceOnUse" x1="-112.14286" y1="591.35522" x2="43.95797" y2="591.35522"/>
    <linearGradient inkscape:collect="always" xlink:href="#linearGradient5891" id="linearGradient6117" gradientUnits="userSpaceOnUse" x1="-112.14286" y1="591.35522" x2="43.95797" y2="591.35522"/>
    <linearGradient inkscape:collect="always" xlink:href="#linearGradient5891" id="linearGradient6119" gradientUnits="userSpaceOnUse" x1="-112.14286" y1="591.35522" x2="43.95797" y2="591.35522"/>
    <linearGradient inkscape:collect="always" xlink:href="#linearGradient5865" id="linearGradient6123" gradientUnits="userSpaceOnUse" x1="91.005119" y1="511.15219" x2="101.94551" y2="559.90216"/>
    <linearGradient inkscape:collect="always" xlink:href="#linearGradient5891" id="linearGradient6141" gradientUnits="userSpaceOnUse" x1="-139.90105" y1="750.52527" x2="34.845188" y2="750.52527"/>
    <linearGradient inkscape:collect="always" xlink:href="#linearGradient5883" id="linearGradient6170" gradientUnits="userSpaceOnUse" gradientTransform="matrix(0.48511392,0.64248512,-0.64248512,0.48511392,318.51514,176.5807)" x1="23.108006" y1="402.90033" x2="77.776672" y2="402.90033"/>
    <linearGradient inkscape:collect="always" xlink:href="#linearGradient5883" id="linearGradient6173" gradientUnits="userSpaceOnUse" gradientTransform="matrix(1.4907444,0,0,1.4907444,-34.078707,-205.57822)" x1="23.108006" y1="402.90033" x2="77.776672" y2="402.90033"/>
    <linearGradient inkscape:collect="always" xlink:href="#linearGradient5883" id="linearGradient6180" gradientUnits="userSpaceOnUse" x1="184.79956" y1="753.39136" x2="290.97321" y2="795.53424"/>
    <linearGradient inkscape:collect="always" xlink:href="#linearGradient5865" id="linearGradient6189" gradientUnits="userSpaceOnUse" x1="335.64285" y1="761.41571" x2="-25.64287" y2="428.55859"/>
    <linearGradient inkscape:collect="always" xlink:href="#linearGradient5891" id="linearGradient6205" gradientUnits="userSpaceOnUse" x1="175.70462" y1="779.63489" x2="171.33502" y2="1052.4921"/>
    <linearGradient inkscape:collect="always" xlink:href="#linearGradient5891" id="linearGradient6297" gradientUnits="userSpaceOnUse" x1="175.70462" y1="779.63489" x2="171.33502" y2="1052.4921"/>
    <linearGradient inkscape:collect="always" xlink:href="#linearGradient5865" id="linearGradient6299" gradientUnits="userSpaceOnUse" x1="335.64285" y1="761.41571" x2="-25.64287" y2="428.55859"/>
    <linearGradient inkscape:collect="always" xlink:href="#linearGradient5891" id="linearGradient6303" gradientUnits="userSpaceOnUse" x1="-112.14286" y1="591.35522" x2="43.95797" y2="591.35522"/>
    <linearGradient inkscape:collect="always" xlink:href="#linearGradient5883" id="linearGradient6305" gradientUnits="userSpaceOnUse" x1="184.79956" y1="753.39136" x2="290.97321" y2="795.53424"/>
    <linearGradient inkscape:collect="always" xlink:href="#linearGradient5865" id="linearGradient6307" gradientUnits="userSpaceOnUse" x1="91.005119" y1="511.15219" x2="101.94551" y2="559.90216"/>
    <linearGradient inkscape:collect="always" xlink:href="#linearGradient5883" id="linearGradient6309" gradientUnits="userSpaceOnUse" gradientTransform="matrix(1.1713242,0,0,1.1713242,-10.109261,-69.026567)" x1="23.108006" y1="402.90033" x2="77.776672" y2="402.90033"/>
    <linearGradient inkscape:collect="always" xlink:href="#linearGradient5883" id="linearGradient6311" gradientUnits="userSpaceOnUse" gradientTransform="matrix(0.48511392,0.64248512,-0.64248512,0.48511392,318.51514,176.5807)" x1="23.108006" y1="402.90033" x2="77.776672" y2="402.90033"/>
    <linearGradient inkscape:collect="always" xlink:href="#linearGradient5891" id="linearGradient6394" gradientUnits="userSpaceOnUse" x1="175.70462" y1="779.63489" x2="171.33502" y2="1052.4921"/>
    <linearGradient inkscape:collect="always" xlink:href="#linearGradient5865" id="linearGradient6396" gradientUnits="userSpaceOnUse" x1="335.64285" y1="761.41571" x2="-25.64287" y2="428.55859"/>
    <linearGradient inkscape:collect="always" xlink:href="#linearGradient5891" id="linearGradient6398" gradientUnits="userSpaceOnUse" x1="-112.14286" y1="591.35522" x2="43.95797" y2="591.35522"/>
    <linearGradient inkscape:collect="always" xlink:href="#linearGradient5891" id="linearGradient6400" gradientUnits="userSpaceOnUse" x1="-112.14286" y1="591.35522" x2="43.95797" y2="591.35522"/>
    <linearGradient inkscape:collect="always" xlink:href="#linearGradient5883" id="linearGradient6402" gradientUnits="userSpaceOnUse" x1="184.79956" y1="753.39136" x2="290.97321" y2="795.53424"/>
    <linearGradient inkscape:collect="always" xlink:href="#linearGradient5865" id="linearGradient6404" gradientUnits="userSpaceOnUse" x1="91.005119" y1="511.15219" x2="101.94551" y2="559.90216"/>
    <linearGradient inkscape:collect="always" xlink:href="#linearGradient5883" id="linearGradient6406" gradientUnits="userSpaceOnUse" gradientTransform="matrix(1.4907444,0,0,1.4907444,-34.078707,-205.57822)" x1="23.108006" y1="402.90033" x2="77.776672" y2="402.90033"/>
    <linearGradient inkscape:collect="always" xlink:href="#linearGradient5883" id="linearGradient6408" gradientUnits="userSpaceOnUse" gradientTransform="matrix(0.48511392,0.64248512,-0.64248512,0.48511392,318.51514,176.5807)" x1="23.108006" y1="402.90033" x2="77.776672" y2="402.90033"/>
    <linearGradient inkscape:collect="always" xlink:href="#linearGradient5891" id="linearGradient6410" gradientUnits="userSpaceOnUse" x1="175.70462" y1="779.63489" x2="171.33502" y2="1052.4921"/>
    <linearGradient inkscape:collect="always" xlink:href="#linearGradient5865" id="linearGradient6412" gradientUnits="userSpaceOnUse" x1="335.64285" y1="761.41571" x2="-25.64287" y2="428.55859"/>
    <linearGradient inkscape:collect="always" xlink:href="#linearGradient5891" id="linearGradient6414" gradientUnits="userSpaceOnUse" x1="-112.14286" y1="591.35522" x2="43.95797" y2="591.35522"/>
    <linearGradient inkscape:collect="always" xlink:href="#linearGradient5883" id="linearGradient6416" gradientUnits="userSpaceOnUse" x1="184.79956" y1="753.39136" x2="290.97321" y2="795.53424"/>
    <linearGradient inkscape:collect="always" xlink:href="#linearGradient5865" id="linearGradient6418" gradientUnits="userSpaceOnUse" x1="91.005119" y1="511.15219" x2="101.94551" y2="559.90216"/>
    <linearGradient inkscape:collect="always" xlink:href="#linearGradient5883" id="linearGradient6420" gradientUnits="userSpaceOnUse" gradientTransform="matrix(1.1713242,0,0,1.1713242,-10.109261,-69.026567)" x1="23.108006" y1="402.90033" x2="77.776672" y2="402.90033"/>
    <linearGradient inkscape:collect="always" xlink:href="#linearGradient5883" id="linearGradient6422" gradientUnits="userSpaceOnUse" gradientTransform="matrix(0.48511392,0.64248512,-0.64248512,0.48511392,318.51514,176.5807)" x1="23.108006" y1="402.90033" x2="77.776672" y2="402.90033"/>
    <linearGradient inkscape:collect="always" xlink:href="#linearGradient5891" id="linearGradient6424" gradientUnits="userSpaceOnUse" x1="-139.90105" y1="750.52527" x2="34.845188" y2="750.52527"/>
  </defs>
  <sodipodi:namedview id="base" pagecolor="#ffffff" bordercolor="#666666" borderopacity="1.0" inkscape:pageopacity="0.0" inkscape:pageshadow="2" inkscape:zoom="0.35" inkscape:cx="321.95967" inkscape:cy="493.65888" inkscape:document-units="px" inkscape:current-layer="layer1" showgrid="false" inkscape:window-width="1280" inkscape:window-height="744" inkscape:window-x="-4" inkscape:window-y="-4" inkscape:window-maximized="1"/>
  <g inkscape:label="Camada 1" inkscape:groupmode="layer" id="layer1" transform="translate(0,-792.36218)">
    <g id="g6313" transform="matrix(0.31967934,0,0,0.31967934,101.61216,687.12961)">
      <g id="g6236">
        <g id="g6197" transform="matrix(0.77641056,0,0,0.77641056,42.235715,204.27731)">
          <path transform="matrix(1.1115789,0,0,1.0713991,8.6788047,-67.869292)" d="m 402.04071,1084.687 c 0,26.2209 -107.41191,47.4772 -239.91122,47.4772 -132.499314,0 -239.911228,-21.2563 -239.911228,-47.4772 0,-26.2209 107.411914,-47.4772 239.911228,-47.4772 132.49931,0 239.91122,21.2563 239.91122,47.4772 z" sodipodi:ry="47.477169" sodipodi:rx="239.91122" sodipodi:cy="1084.687" sodipodi:cx="162.12949" id="path6019" style="opacity:0.63157893;fill:#93aca7;fill-opacity:1;stroke:none;filter:url(#filter6021)" sodipodi:type="arc"/>
          <path id="path5325" d="m 136.875,872.96875 a 10.001,10.001 0 0 0 -8.125,4.5625 c 0,0 -54.196709,83.01539 -5.09375,171.34375 -12.98463,0.4866 -30.095338,1.117 -48.96875,1.7188 -17.217401,0.5489 -34.644002,1.0545 -48.125,1.2812 -6.740499,0.1133 -12.480451,0.1643 -16.65625,0.125 -2.0878994,-0.02 -3.8061155,-0.068 -4.9375,-0.125 -1.1313845,-0.057 -2.4032303,-0.4595 -0.46875,0.094 a 10.001,10.001 0 1 0 -5.5,19.2187 c 2.7929541,0.7984 3.3751687,0.5762 4.96875,0.6563 1.5935813,0.08 3.502461,0.1351 5.75,0.1562 4.495078,0.042 10.35135,-0.01 17.1875,-0.125 4.73893,-0.08 10.042347,-0.2082 15.53125,-0.3438 -5.09535,1.1736 -10.013093,2.3031 -14.40625,3.2813 -6.580319,1.4651 -12.213933,2.6684 -16.3125,3.4687 -2.0492837,0.4004 -3.7240026,0.7034 -4.84375,0.875 -1.1197474,0.1718 -2.4435294,0.035 -0.4375,0.1876 a 10.001,10.001 0 1 0 -1.53125,19.9374 c 2.8962994,0.2211 3.422837,-0.102 5,-0.3437 1.577163,-0.2417 3.450287,-0.6004 5.65625,-1.0313 4.411925,-0.8615 10.138808,-2.0766 16.8125,-3.5624 10.358434,-2.3064 23.061505,-5.2786 36.03125,-8.3438 -11.653546,6.0281 -23.063327,11.8969 -32.3125,16.5312 -6.027174,3.02 -11.187465,5.5716 -14.96875,7.3438 -1.890643,0.8861 -3.45551,1.5615 -4.5,2 -1.04449,0.4385 -2.358204,0.6203 -0.375,0.2812 a 10.002771,10.002771 0 1 0 3.375,19.7188 c 2.863306,-0.4893 3.278813,-0.9448 4.75,-1.5625 1.471187,-0.6177 3.214801,-1.39 5.25,-2.3437 4.070399,-1.9078 9.324797,-4.4996 15.4375,-7.5626 12.225406,-6.1256 27.795232,-14.1215 43.125,-22.0937 25.58999,-13.308 46.66609,-24.4636 54.21875,-28.4687 a 10.001,10.001 0 0 0 8.59375,-5.0313 10.001,10.001 0 0 0 -2.375,-15.9687 10.001,10.001 0 0 0 -0.15625,-0.094 10.001,10.001 0 0 0 -0.15625,-0.062 10.001,10.001 0 0 0 -1.96875,-0.7813 c -53.010373,-82.26645 -0.9375,-159.31245 -0.9375,-159.31245 a 10.001,10.001 0 0 0 -8.53125,-15.625 z m 98.75,0 a 10.001,10.001 0 0 0 -8.25,15.625 c 0,0 52.07287,77.046 -0.9375,159.31245 a 10.001,10.001 0 0 0 -2.78125,1.25 10.001,10.001 0 0 0 -2.03125,15.4063 10.001,10.001 0 0 0 1.625,1.5625 10.004882,10.004882 0 0 0 6.40625,3.3125 c 6.86498,3.6414 28.76138,15.2459 54.96875,28.875 15.32977,7.9722 30.86834,15.9682 43.09375,22.0937 6.1127,3.0629 11.39835,5.6547 15.46875,7.5626 2.0352,0.9538 3.74756,1.726 5.21875,2.3437 1.47119,0.6177 1.91794,1.0732 4.78125,1.5625 a 10.002771,10.002771 0 1 0 3.375,-19.7188 c 1.9832,0.339 0.63824,0.1573 -0.40625,-0.2812 -1.04449,-0.4385 -2.57811,-1.1139 -4.46875,-2 -3.78129,-1.7722 -8.97283,-4.3237 -15,-7.3438 -9.24917,-4.6343 -20.65895,-10.5031 -32.3125,-16.5312 12.96975,3.0652 25.67282,6.0374 36.03125,8.3438 6.67369,1.4858 12.43182,2.7008 16.84375,3.5624 2.20596,0.431 4.04784,0.7896 5.625,1.0313 1.57716,0.2417 2.1037,0.5648 5,0.3437 a 10.001,10.001 0 1 0 -1.5,-19.9374 c 2.00603,-0.1531 0.651,-0.016 -0.46875,-0.1876 -1.11975,-0.1715 -2.79447,-0.4746 -4.84375,-0.875 -4.09857,-0.8004 -9.73218,-2.0036 -16.3125,-3.4687 -4.39316,-0.9782 -9.31554,-2.1077 -14.40625,-3.2813 5.50033,0.1359 10.81465,0.264 15.5625,0.3438 6.83615,0.1149 12.69242,0.1673 17.1875,0.125 2.24754,-0.021 4.15642,-0.076 5.75,-0.1562 1.59358,-0.08 2.1758,0.1421 4.96875,-0.6563 a 10.001,10.001 0 0 0 -4.84375,-19.4063 c 0.0382,-0.02 -0.43165,0.057 -1.15625,0.094 -1.13138,0.057 -2.81835,0.1054 -4.90625,0.125 -4.1758,0.039 -9.947,-0.012 -16.6875,-0.125 -13.481,-0.2267 -30.9076,-0.7323 -48.125,-1.2812 -18.8494,-0.601 -35.96353,-1.2011 -48.9375,-1.6876 49.12265,-88.33717 -5.125,-171.37495 -5.125,-171.37495 a 10.001,10.001 0 0 0 -8.40625,-4.5625 z" style="font-size:medium;font-style:normal;font-variant:normal;font-weight:normal;font-stretch:normal;text-indent:0;text-align:start;text-decoration:none;line-height:normal;letter-spacing:normal;word-spacing:normal;text-transform:none;direction:ltr;block-progression:tb;writing-mode:lr-tb;text-anchor:start;baseline-shift:baseline;color:#000000;fill:url(#linearGradient6394);fill-opacity:1;stroke:none;stroke-width:20;marker:none;visibility:visible;display:inline;overflow:visible;enable-background:accumulate;font-family:Sans;-inkscape-font-specification:Sans" inkscape:connector-curvature="0"/>
          <path inkscape:connector-curvature="0" id="path6005" d="m 118.125,898.47825 -1.69643,4.19643 c 0,0 6.42857,5.66965 19.19643,4.41965 l 2.76786,-5.80358 z" style="fill:#d66c0b;fill-opacity:1;stroke:none"/>
          <path style="fill:#d66c0b;fill-opacity:1;stroke:none" d="m 255.44643,900.44253 1.69643,4.19643 c 0,0 -6.42857,5.66965 -19.19643,4.41965 l -2.76786,-5.80358 z" id="path6007" inkscape:connector-curvature="0"/>
        </g>
        <path style="fill:url(#linearGradient6396);fill-opacity:1;stroke:none" d="m -67.142857,586.57056 c 0,0 -2.857143,-167.52983 160,-167.52983 125.051127,0 127.969667,120.45917 129.053317,189.33587 31.2794,135.03356 207.7804,18.52569 228.08954,-13.63385 0,0 45.71429,311.90515 -258.57143,311.90515 -304.28571,0 -258.571427,-320.07734 -258.571427,-320.07734 z" id="path5280" inkscape:connector-curvature="0" sodipodi:nodetypes="csccsc"/>
        <g id="g5857" transform="translate(-28.284271,0)" style="fill:url(#linearGradient6400);fill-opacity:1">
          <path inkscape:connector-curvature="0" id="path5286" d="m -112.14286,508.07647 c 0,0 97.14286,-23.57143 155.714289,67.85714 0,0 11.428571,69.28572 -90,101.42857 0,0 23.571428,-44.28571 20.714285,-80 0,0 -24.28572,-56.42856 -86.428574,-89.28571 z" style="fill:url(#linearGradient6398);fill-opacity:1;stroke:none"/>
          <path sodipodi:nodetypes="ccccc" style="fill:#aa4400;fill-opacity:1;stroke:none" d="m -90.468338,515.64041 c 0,0 44.934794,-5.00194 107.700097,66.6939 0,0 0.748629,50.84986 -54.109751,87.21614 0,0 19.222621,-40.26338 16.892606,-72.73386 0,0 -19.805129,-51.30334 -70.482952,-81.17618 z" id="path5288" inkscape:connector-curvature="0"/>
          <path id="path5290" d="m -3.0625,561.09375 c -7.012725,5.02129 -11.59375,13.24834 -11.59375,22.53125 0,14.64952 11.4099291,26.6199 25.8125,27.59375 6.241282,-16.69209 6.0625,-28.875 6.0625,-28.875 -7.003331,-7.9998 -13.7595516,-15.04649 -20.28125,-21.25 z" style="fill:#552200;fill-opacity:1;stroke:none" inkscape:connector-curvature="0"/>
          <path id="path5292" d="m 2.65625,592.34375 c -2.75976181,0.10242 -5.5625,0.67969 -8.375,1.8125 -25.714285,10.35714 -20,61.0625 -20,61.0625 0,0 7.280601,-13.51292 22.5625,-17.5 11.8895921,-16.38043 16.85397,-32.12708 18.90625,-42.625 -4.177141,-1.83696 -8.585378,-2.91731 -13.09375,-2.75 z" style="fill:#ff0000;fill-opacity:1;stroke:none" inkscape:connector-curvature="0"/>
        </g>
        <path inkscape:connector-curvature="0" id="path6009" d="m 174.54415,814.26943 c 0,0 108.98571,70.04873 187.76282,-22.63396 0,0 -122.93204,5.88277 -137.41726,-64.11996 z" style="fill:#2c89a0;fill-opacity:1;stroke:none" sodipodi:nodetypes="cccc"/>
        <path style="fill:url(#linearGradient6402);fill-opacity:1;stroke:none" d="m 171.72814,813.75919 c 0,0 116.66344,64.69589 187.3165,-34.31957 0,0 -115.01063,5.63366 -135.36662,-62.89252 z" id="path5282" inkscape:connector-curvature="0"/>
        <path sodipodi:type="arc" style="fill:url(#linearGradient6404);fill-opacity:1;stroke:none" id="path5317" sodipodi:cx="100.25764" sodipodi:cy="534.40649" sodipodi:rx="22.98097" sodipodi:ry="22.98097" d="m 123.23861,534.40649 c 0,12.69204 -10.28893,22.98097 -22.98097,22.98097 -12.692042,0 -22.980973,-10.28893 -22.980973,-22.98097 0,-12.69204 10.288931,-22.98097 22.980973,-22.98097 12.69204,0 22.98097,10.28893 22.98097,22.98097 z" transform="matrix(1.6477046,0,0,1.6477046,-64.93734,-346.13758)"/>
        <path transform="matrix(1.3210046,0,0,1.3210046,-32.183164,-171.54695)" d="m 123.23861,534.40649 c 0,12.69204 -10.28893,22.98097 -22.98097,22.98097 -12.692042,0 -22.980973,-10.28893 -22.980973,-22.98097 0,-12.69204 10.288931,-22.98097 22.980973,-22.98097 12.69204,0 22.98097,10.28893 22.98097,22.98097 z" sodipodi:ry="22.98097" sodipodi:rx="22.98097" sodipodi:cy="534.40649" sodipodi:cx="100.25764" id="path5319" style="fill:#000000;fill-opacity:1;stroke:none" sodipodi:type="arc"/>
        <path sodipodi:type="arc" style="fill:#ffffff;fill-opacity:1;stroke:none" id="path5321" sodipodi:cx="100.25764" sodipodi:cy="534.40649" sodipodi:rx="22.98097" sodipodi:ry="22.98097" d="m 123.23861,534.40649 c 0,12.69204 -10.28893,22.98097 -22.98097,22.98097 -12.692042,0 -22.980973,-10.28893 -22.980973,-22.98097 0,-12.69204 10.288931,-22.98097 22.980973,-22.98097 12.69204,0 22.98097,10.28893 22.98097,22.98097 z" transform="matrix(0.52556096,0,0,0.52556096,54.747591,239.18041)"/>
        <path transform="matrix(0.3409044,0,0,0.3409044,85.991582,350.59283)" d="m 123.23861,534.40649 c 0,12.69204 -10.28893,22.98097 -22.98097,22.98097 -12.692042,0 -22.980973,-10.28893 -22.980973,-22.98097 0,-12.69204 10.288931,-22.98097 22.980973,-22.98097 12.69204,0 22.98097,10.28893 22.98097,22.98097 z" sodipodi:ry="22.98097" sodipodi:rx="22.98097" sodipodi:cy="534.40649" sodipodi:cx="100.25764" id="path5323" style="fill:#ffffff;fill-opacity:1;stroke:none" sodipodi:type="arc"/>
        <path style="fill:url(#linearGradient6406);fill-opacity:1;stroke:none" d="m 10.344731,376.8739 c 0,0 61.36458,22.96466 70.776326,62.11752 0,0 -1.882351,-50.82342 -33.882284,-77.1763 -31.999935,-26.3529 -61.74105,2.63528 -36.894042,15.05878 z" id="path5907" inkscape:connector-curvature="0"/>
        <path inkscape:connector-curvature="0" id="path5917" d="m 81.944488,385.2664 c 0,0 10.071718,33.92017 -3.739748,50.71749 0,0 21.291471,-17.35008 22.23578,-39.71718 0.94431,-22.36711 -21.227359,-25.75176 -18.496032,-11.00031 z" style="fill:url(#linearGradient6408);fill-opacity:1;stroke:none"/>
      </g>
      <g transform="translate(684.28572,0)" id="g6257">
        <g transform="matrix(0.77641056,0,0,0.77641056,42.235715,204.27731)" id="g6259">
          <path sodipodi:type="arc" style="opacity:0.63157893;fill:#93aca7;fill-opacity:1;stroke:none;filter:url(#filter6021)" id="path6261" sodipodi:cx="162.12949" sodipodi:cy="1084.687" sodipodi:rx="239.91122" sodipodi:ry="47.477169" d="m 402.04071,1084.687 c 0,26.2209 -107.41191,47.4772 -239.91122,47.4772 -132.499314,0 -239.911228,-21.2563 -239.911228,-47.4772 0,-26.2209 107.411914,-47.4772 239.911228,-47.4772 132.49931,0 239.91122,21.2563 239.91122,47.4772 z" transform="matrix(1.1115789,0,0,1.0713991,8.6788047,-67.869292)"/>
          <path inkscape:connector-curvature="0" style="font-size:medium;font-style:normal;font-variant:normal;font-weight:normal;font-stretch:normal;text-indent:0;text-align:start;text-decoration:none;line-height:normal;letter-spacing:normal;word-spacing:normal;text-transform:none;direction:ltr;block-progression:tb;writing-mode:lr-tb;text-anchor:start;baseline-shift:baseline;color:#000000;fill:url(#linearGradient6410);fill-opacity:1;stroke:none;stroke-width:20;marker:none;visibility:visible;display:inline;overflow:visible;enable-background:accumulate;font-family:Sans;-inkscape-font-specification:Sans" d="m 136.875,872.96875 a 10.001,10.001 0 0 0 -8.125,4.5625 c 0,0 -54.196709,83.01539 -5.09375,171.34375 -12.98463,0.4866 -30.095338,1.117 -48.96875,1.7188 -17.217401,0.5489 -34.644002,1.0545 -48.125,1.2812 -6.740499,0.1133 -12.480451,0.1643 -16.65625,0.125 -2.0878994,-0.02 -3.8061155,-0.068 -4.9375,-0.125 -1.1313845,-0.057 -2.4032303,-0.4595 -0.46875,0.094 a 10.001,10.001 0 1 0 -5.5,19.2187 c 2.7929541,0.7984 3.3751687,0.5762 4.96875,0.6563 1.5935813,0.08 3.502461,0.1351 5.75,0.1562 4.495078,0.042 10.35135,-0.01 17.1875,-0.125 4.73893,-0.08 10.042347,-0.2082 15.53125,-0.3438 -5.09535,1.1736 -10.013093,2.3031 -14.40625,3.2813 -6.580319,1.4651 -12.213933,2.6684 -16.3125,3.4687 -2.0492837,0.4004 -3.7240026,0.7034 -4.84375,0.875 -1.1197474,0.1718 -2.4435294,0.035 -0.4375,0.1876 a 10.001,10.001 0 1 0 -1.53125,19.9374 c 2.8962994,0.2211 3.422837,-0.102 5,-0.3437 1.577163,-0.2417 3.450287,-0.6004 5.65625,-1.0313 4.411925,-0.8615 10.138808,-2.0766 16.8125,-3.5624 10.358434,-2.3064 23.061505,-5.2786 36.03125,-8.3438 -11.653546,6.0281 -23.063327,11.8969 -32.3125,16.5312 -6.027174,3.02 -11.187465,5.5716 -14.96875,7.3438 -1.890643,0.8861 -3.45551,1.5615 -4.5,2 -1.04449,0.4385 -2.358204,0.6203 -0.375,0.2812 a 10.002771,10.002771 0 1 0 3.375,19.7188 c 2.863306,-0.4893 3.278813,-0.9448 4.75,-1.5625 1.471187,-0.6177 3.214801,-1.39 5.25,-2.3437 4.070399,-1.9078 9.324797,-4.4996 15.4375,-7.5626 12.225406,-6.1256 27.795232,-14.1215 43.125,-22.0937 25.58999,-13.308 46.66609,-24.4636 54.21875,-28.4687 a 10.001,10.001 0 0 0 8.59375,-5.0313 10.001,10.001 0 0 0 -2.375,-15.9687 10.001,10.001 0 0 0 -0.15625,-0.094 10.001,10.001 0 0 0 -0.15625,-0.062 10.001,10.001 0 0 0 -1.96875,-0.7813 c -53.010373,-82.26645 -0.9375,-159.31245 -0.9375,-159.31245 a 10.001,10.001 0 0 0 -8.53125,-15.625 z m 98.75,0 a 10.001,10.001 0 0 0 -8.25,15.625 c 0,0 52.07287,77.046 -0.9375,159.31245 a 10.001,10.001 0 0 0 -2.78125,1.25 10.001,10.001 0 0 0 -2.03125,15.4063 10.001,10.001 0 0 0 1.625,1.5625 10.004882,10.004882 0 0 0 6.40625,3.3125 c 6.86498,3.6414 28.76138,15.2459 54.96875,28.875 15.32977,7.9722 30.86834,15.9682 43.09375,22.0937 6.1127,3.0629 11.39835,5.6547 15.46875,7.5626 2.0352,0.9538 3.74756,1.726 5.21875,2.3437 1.47119,0.6177 1.91794,1.0732 4.78125,1.5625 a 10.002771,10.002771 0 1 0 3.375,-19.7188 c 1.9832,0.339 0.63824,0.1573 -0.40625,-0.2812 -1.04449,-0.4385 -2.57811,-1.1139 -4.46875,-2 -3.78129,-1.7722 -8.97283,-4.3237 -15,-7.3438 -9.24917,-4.6343 -20.65895,-10.5031 -32.3125,-16.5312 12.96975,3.0652 25.67282,6.0374 36.03125,8.3438 6.67369,1.4858 12.43182,2.7008 16.84375,3.5624 2.20596,0.431 4.04784,0.7896 5.625,1.0313 1.57716,0.2417 2.1037,0.5648 5,0.3437 a 10.001,10.001 0 1 0 -1.5,-19.9374 c 2.00603,-0.1531 0.651,-0.016 -0.46875,-0.1876 -1.11975,-0.1715 -2.79447,-0.4746 -4.84375,-0.875 -4.09857,-0.8004 -9.73218,-2.0036 -16.3125,-3.4687 -4.39316,-0.9782 -9.31554,-2.1077 -14.40625,-3.2813 5.50033,0.1359 10.81465,0.264 15.5625,0.3438 6.83615,0.1149 12.69242,0.1673 17.1875,0.125 2.24754,-0.021 4.15642,-0.076 5.75,-0.1562 1.59358,-0.08 2.1758,0.1421 4.96875,-0.6563 a 10.001,10.001 0 0 0 -4.84375,-19.4063 c 0.0382,-0.02 -0.43165,0.057 -1.15625,0.094 -1.13138,0.057 -2.81835,0.1054 -4.90625,0.125 -4.1758,0.039 -9.947,-0.012 -16.6875,-0.125 -13.481,-0.2267 -30.9076,-0.7323 -48.125,-1.2812 -18.8494,-0.601 -35.96353,-1.2011 -48.9375,-1.6876 49.12265,-88.33717 -5.125,-171.37495 -5.125,-171.37495 a 10.001,10.001 0 0 0 -8.40625,-4.5625 z" id="path6263"/>
          <path style="fill:#d66c0b;fill-opacity:1;stroke:none" d="m 118.125,898.47825 -1.69643,4.19643 c 0,0 6.42857,5.66965 19.19643,4.41965 l 2.76786,-5.80358 z" id="path6265" inkscape:connector-curvature="0"/>
          <path inkscape:connector-curvature="0" id="path6267" d="m 255.44643,900.44253 1.69643,4.19643 c 0,0 -6.42857,5.66965 -19.19643,4.41965 l -2.76786,-5.80358 z" style="fill:#d66c0b;fill-opacity:1;stroke:none"/>
        </g>
        <path sodipodi:nodetypes="csccsc" inkscape:connector-curvature="0" id="path6269" d="m -67.142857,586.57056 c 0,0 -2.857143,-167.52983 160,-167.52983 125.051127,0 127.969667,120.45917 129.053317,189.33587 31.2794,135.03356 207.7804,18.52569 228.08954,-13.63385 0,0 45.71429,311.90515 -258.57143,311.90515 -304.28571,0 -258.571427,-320.07734 -258.571427,-320.07734 z" style="fill:url(#linearGradient6412);fill-opacity:1;stroke:none"/>
        <g style="fill:url(#linearGradient6414);fill-opacity:1" transform="translate(-28.284271,0)" id="g6271"/>
        <path sodipodi:nodetypes="cccc" style="fill:#2c89a0;fill-opacity:1;stroke:none" d="m 174.54415,814.26943 c 0,0 108.98571,70.04873 187.76282,-22.63396 0,0 -122.93204,5.88277 -137.41726,-64.11996 z" id="path6281" inkscape:connector-curvature="0"/>
        <path inkscape:connector-curvature="0" id="path6283" d="m 171.72814,813.75919 c 0,0 116.66344,64.69589 187.3165,-34.31957 0,0 -115.01063,5.63366 -135.36662,-62.89252 z" style="fill:url(#linearGradient6416);fill-opacity:1;stroke:none"/>
        <path transform="matrix(1.6477046,0,0,1.6477046,-64.93734,-346.13758)" d="m 123.23861,534.40649 c 0,12.69204 -10.28893,22.98097 -22.98097,22.98097 -12.692042,0 -22.980973,-10.28893 -22.980973,-22.98097 0,-12.69204 10.288931,-22.98097 22.980973,-22.98097 12.69204,0 22.98097,10.28893 22.98097,22.98097 z" sodipodi:ry="22.98097" sodipodi:rx="22.98097" sodipodi:cy="534.40649" sodipodi:cx="100.25764" id="path6285" style="fill:url(#linearGradient6418);fill-opacity:1;stroke:none" sodipodi:type="arc"/>
        <path sodipodi:type="arc" style="fill:#000000;fill-opacity:1;stroke:none" id="path6287" sodipodi:cx="100.25764" sodipodi:cy="534.40649" sodipodi:rx="22.98097" sodipodi:ry="22.98097" d="m 123.23861,534.40649 c 0,12.69204 -10.28893,22.98097 -22.98097,22.98097 -12.692042,0 -22.980973,-10.28893 -22.980973,-22.98097 0,-12.69204 10.288931,-22.98097 22.980973,-22.98097 12.69204,0 22.98097,10.28893 22.98097,22.98097 z" transform="matrix(1.3210046,0,0,1.3210046,-32.183164,-171.54695)"/>
        <path transform="matrix(0.52556096,0,0,0.52556096,54.747591,239.18041)" d="m 123.23861,534.40649 c 0,12.69204 -10.28893,22.98097 -22.98097,22.98097 -12.692042,0 -22.980973,-10.28893 -22.980973,-22.98097 0,-12.69204 10.288931,-22.98097 22.980973,-22.98097 12.69204,0 22.98097,10.28893 22.98097,22.98097 z" sodipodi:ry="22.98097" sodipodi:rx="22.98097" sodipodi:cy="534.40649" sodipodi:cx="100.25764" id="path6289" style="fill:#ffffff;fill-opacity:1;stroke:none" sodipodi:type="arc"/>
        <path sodipodi:type="arc" style="fill:#ffffff;fill-opacity:1;stroke:none" id="path6291" sodipodi:cx="100.25764" sodipodi:cy="534.40649" sodipodi:rx="22.98097" sodipodi:ry="22.98097" d="m 123.23861,534.40649 c 0,12.69204 -10.28893,22.98097 -22.98097,22.98097 -12.692042,0 -22.980973,-10.28893 -22.980973,-22.98097 0,-12.69204 10.288931,-22.98097 22.980973,-22.98097 12.69204,0 22.98097,10.28893 22.98097,22.98097 z" transform="matrix(0.3409044,0,0,0.3409044,85.991582,350.59283)"/>
        <path inkscape:connector-curvature="0" id="path6293" d="m 24.795614,388.62415 c 0,0 48.216056,18.04405 55.611157,48.80767 0,0 -1.479021,-39.93354 -26.622362,-60.63982 -25.143343,-20.70629 -48.511861,2.07062 -28.988795,11.83215 z" style="fill:url(#linearGradient6420);fill-opacity:1;stroke:none"/>
        <path style="fill:url(#linearGradient6422);fill-opacity:1;stroke:none" d="m 81.944488,385.2664 c 0,0 10.071718,33.92017 -3.739748,50.71749 0,0 21.291471,-17.35008 22.23578,-39.71718 0.94431,-22.36711 -21.227359,-25.75176 -18.496032,-11.00031 z" id="path6295" inkscape:connector-curvature="0"/>
      </g>
      <g transform="translate(680.84282,-157.58379)" id="g6013">
        <path style="fill:url(#linearGradient6424);fill-opacity:1;stroke:none" d="m 34.345187,744.26566 c 0,0 -91.923882,-60.60916 -173.746237,-4.04061 l 42.426406,10.10152 c 0,0 50.507628,81.82237 131.319831,-6.06091 z" id="path5941" inkscape:connector-curvature="0"/>
        <path inkscape:connector-curvature="0" style="fill:#803300;stroke:none" d="m 34.09375,744.28125 c 0,0 -30.5502791,5.28887 -53.53125,4.53125 -22.251113,-0.73355 -54.930761,-8.35429 -78.53125,1.25 l 1,0.25 c 0,0 0.77734,1.25758 2.28125,3.28125 6.632009,-2.68087 20.050018,-5.30699 45.9375,-1.5 42.9314829,6.31345 82.84375,-7.8125 82.84375,-7.8125 z" id="path5951"/>
      </g>
      <g transform="matrix(0.14411116,0.04423986,-0.05863331,0.19099777,-134.6192,328.87795)" id="g6227">
        <rect style="fill:#00222b;fill-opacity:1;stroke:none" id="rect6207" width="472.7514" height="123.23861" x="-14.142136" y="1234.1897" ry="3.4092648"/>
        <g id="g6217">
          <path transform="matrix(0.64622962,0.76314303,-0.76314303,0.64622962,1256.8084,700.04877)" d="m -105.05587,1691.7887 c 0,60.8102 -39.79894,110.1066 -88.89343,110.1066 -49.09448,0 -88.89342,-49.2964 -88.89342,-110.1066 0,-60.8102 39.79894,-110.1066 88.89342,-110.1066 49.09449,0 88.89343,49.2964 88.89343,110.1066 z" sodipodi:ry="110.10663" sodipodi:rx="88.893425" sodipodi:cy="1691.7887" sodipodi:cx="-193.9493" id="path6209" style="fill:#00222b;fill-opacity:1;stroke:none" sodipodi:type="arc"/>
          <path inkscape:connector-curvature="0" id="path6211" d="m 16.793928,1308.061 -31.90625,2.7188 c 0,0 7.1255318,84.198 -6.5,175.6562 -6.812766,45.7292 -18.898471,93.0533 -38.875,131.8126 -19.976529,38.7592 -47.200058,68.5448 -85.187498,82.7812 l 11.21875,29.9375 c 47.091704,-17.6484 80.011705,-54.6117 102.406248,-98.0625 22.3945428,-43.4508 34.9200748,-93.8081 42.0625,-141.75 14.28485,-95.8838 6.78125,-183.0937 6.78125,-183.0938 z" style="font-size:medium;font-style:normal;font-variant:normal;font-weight:normal;font-stretch:normal;text-indent:0;text-align:start;text-decoration:none;line-height:normal;letter-spacing:normal;word-spacing:normal;text-transform:none;direction:ltr;block-progression:tb;writing-mode:lr-tb;text-anchor:start;baseline-shift:baseline;color:#000000;fill:#00222b;fill-opacity:1;stroke:none;stroke-width:32;marker:none;visibility:visible;display:inline;overflow:visible;enable-background:accumulate;font-family:Sans;-inkscape-font-specification:Sans"/>
        </g>
        <g id="g6221" transform="translate(440.42651,16.162441)">
          <path sodipodi:type="arc" style="fill:#00222b;fill-opacity:1;stroke:none" id="path6223" sodipodi:cx="-193.9493" sodipodi:cy="1691.7887" sodipodi:rx="88.893425" sodipodi:ry="110.10663" d="m -105.05587,1691.7887 c 0,60.8102 -39.79894,110.1066 -88.89343,110.1066 -49.09448,0 -88.89342,-49.2964 -88.89342,-110.1066 0,-60.8102 39.79894,-110.1066 88.89342,-110.1066 49.09449,0 88.89343,49.2964 88.89343,110.1066 z" transform="matrix(0.64622962,0.76314303,-0.76314303,0.64622962,1256.8084,700.04877)"/>
          <path style="font-size:medium;font-style:normal;font-variant:normal;font-weight:normal;font-stretch:normal;text-indent:0;text-align:start;text-decoration:none;line-height:normal;letter-spacing:normal;word-spacing:normal;text-transform:none;direction:ltr;block-progression:tb;writing-mode:lr-tb;text-anchor:start;baseline-shift:baseline;color:#000000;fill:#00222b;fill-opacity:1;stroke:none;stroke-width:32;marker:none;visibility:visible;display:inline;overflow:visible;enable-background:accumulate;font-family:Sans;-inkscape-font-specification:Sans" d="m 16.793928,1308.061 -31.90625,2.7188 c 0,0 7.1255318,84.198 -6.5,175.6562 -6.812766,45.7292 -18.898471,93.0533 -38.875,131.8126 -19.976529,38.7592 -47.200058,68.5448 -85.187498,82.7812 l 11.21875,29.9375 c 47.091704,-17.6484 80.011705,-54.6117 102.406248,-98.0625 22.3945428,-43.4508 34.9200748,-93.8081 42.0625,-141.75 14.28485,-95.8838 6.78125,-183.0937 6.78125,-183.0938 z" id="path6225" inkscape:connector-curvature="0"/>
        </g>
      </g>
    </g>
  </g>
  <metadata>
    <rdf:RDF>
      <cc:Work>
        <dc:format>image/svg+xml</dc:format>
        <dc:type rdf:resource="http://purl.org/dc/dcmitype/StillImage"/>
        <cc:license rdf:resource="http://creativecommons.org/licenses/publicdomain/"/>
        <dc:publisher>
          <cc:Agent rdf:about="http://openclipart.org/">
            <dc:title>Open Clip Art Library</dc:title>
          </cc:Agent>
        </dc:publisher>
        <dc:title>Bird Mascot</dc:title>
        <dc:date>2010-07-04T20:25:24</dc:date>
        <dc:description>Twitter Mascot Version</dc:description>
        <dc:source>http://openclipart.org/detail/70159/twitter-bird-mascot-by-evandrodesouza</dc:source>
        <dc:creator>
          <cc:Agent>
            <dc:title>evandrodesouza</dc:title>
          </cc:Agent>
        </dc:creator>
        <dc:subject>
          <rdf:Bag>
            <rdf:li>animal</rdf:li>
            <rdf:li>bird</rdf:li>
            <rdf:li>blue</rdf:li>
            <rdf:li>cartoon</rdf:li>
            <rdf:li>clip art</rdf:li>
            <rdf:li>clipart</rdf:li>
            <rdf:li>draw</rdf:li>
            <rdf:li>icon</rdf:li>
            <rdf:li>logo</rdf:li>
            <rdf:li>mascot</rdf:li>
            <rdf:li>svg</rdf:li>
            <rdf:li>symbol</rdf:li>
            <rdf:li>tweet</rdf:li>
            <rdf:li>twitter</rdf:li>
            <rdf:li>web</rdf:li>
          </rdf:Bag>
        </dc:subject>
      </cc:Work>
      <cc:License rdf:about="http://creativecommons.org/licenses/publicdomain/">
        <cc:permits rdf:resource="http://creativecommons.org/ns#Reproduction"/>
        <cc:permits rdf:resource="http://creativecommons.org/ns#Distribution"/>
        <cc:permits rdf:resource="http://creativecommons.org/ns#DerivativeWorks"/>
      </cc:License>
    </rdf:RDF>
  </metadata>
</svg>
